<svg width="136" height="136" viewBox="0 0 136 136" fill="none" xmlns="http://www.w3.org/2000/svg">
<path fill-rule="evenodd" clip-rule="evenodd" d="M1.00031 67.695C0.831976 104.673 30.7166 134.831 67.6946 134.999C104.673 135.168 134.831 105.283 134.999 68.305C135.167 31.327 105.283 1.16905 68.3046 1.00072C31.3266 0.832385 1.16864 30.717 1.00031 67.695ZM6.58358 67.7204C6.42928 101.617 33.824 129.262 67.72 129.416C101.616 129.57 129.261 102.176 129.416 68.2796C129.57 34.3835 102.175 6.73829 68.2792 6.58399C34.3831 6.42969 6.73789 33.8244 6.58358 67.7204ZM70.914 41.0567L91.8067 66.8801L95.9388 63.1077L68.1775 28.9171L40.1058 62.915L44.2931 66.6526L65.3306 41.0424L65.0301 107.07L70.6133 107.096L70.914 41.0567Z" fill="#BBC7DD" stroke="#BBC7DD"/>
</svg>
